<?xml version="1.0" encoding="utf-8"?>
<!-- Generator: Adobe Illustrator 24.3.0, SVG Export Plug-In . SVG Version: 6.00 Build 0)  -->
<svg version="1.1" id="Layer_1" xmlns="http://www.w3.org/2000/svg" xmlns:xlink="http://www.w3.org/1999/xlink" x="0px" y="0px"
	 viewBox="0 0 10 10" style="enable-background:new 0 0 10 10;" xml:space="preserve">
<style type="text/css">
	.st0{fill:#2C9960;enable-background:new    ;}
</style>
<rect x="1" y="1" class="st0" width="1" height="1"/>
<rect x="2" y="2.5" class="st0" width="1" height="1"/>
<rect x="1" y="4" class="st0" width="1" height="1"/>
<rect x="2" y="6" class="st0" width="1" height="1"/>
<rect x="1" y="7.5" class="st0" width="1" height="1"/>
<rect x="4" class="st0" width="1" height="1"/>
<rect x="5.9" y="2.5" class="st0" width="1" height="1"/>
<rect x="4" y="4" class="st0" width="1" height="1"/>
<rect x="5" y="6" class="st0" width="1" height="1"/>
<rect x="4" y="8.5" class="st0" width="1" height="1"/>
<rect x="7" class="st0" width="1" height="1"/>
<rect x="9" y="2.5" class="st0" width="1" height="1"/>
<rect x="5.9" y="4" class="st0" width="1" height="1"/>
<rect x="8" y="6" class="st0" width="1" height="1"/>
<rect x="7" y="7.5" class="st0" width="1" height="1"/>
</svg>
