<?xml version="1.0" encoding="utf-8"?>
<!-- Generator: Adobe Illustrator 24.3.0, SVG Export Plug-In . SVG Version: 6.00 Build 0)  -->
<svg version="1.1" id="Layer_1" xmlns="http://www.w3.org/2000/svg" xmlns:xlink="http://www.w3.org/1999/xlink" x="0px" y="0px"
	 viewBox="0 0 2344.6 418.7" style="enable-background:new 0 0 2344.6 418.7;" xml:space="preserve">
<style type="text/css">
	.st0{fill:#F5DE7E;}
</style>
<g>
	<path class="st0" d="M1,322.7V6.8h91.9c70.1,0,107.2,32.5,107.2,94c0,31-9.1,54.7-27,70.4c-17.9,15.8-44.9,23.8-80.2,23.8H42v127.8
		H1z M42,140.3h50.9c21.4,0,36.3-0.4,47-5.2c12-5.4,17.3-16,17.3-34.3c0-17.2-23.2-18-64.3-18H42V140.3z"/>
	<path d="M92.9,7.8c34.8,0,61.5,8,79.4,23.7c17.8,15.6,26.8,39,26.8,69.3c0,30.7-9,54.1-26.7,69.7C154.6,186,127.9,194,92.9,194H43
		h-2v2v125.8H2V7.8H92.9 M41,141.3h2h49.9c37.9,0,65.3,0,65.3-40.6c0-19-27.4-19-65.3-19H43h-2v2v55.6V141.3 M92.9,5.8H0v318h43V196
		h49.9c71.3,0,108.2-32.4,108.2-95.2C201.1,38.6,163.8,5.8,92.9,5.8L92.9,5.8z M43,139.3V83.7h49.9c40,0,63.3,0.6,63.3,17
		c0,37.7-23.4,38.6-63.3,38.6H43L43,139.3z"/>
</g>
<g>
	<path class="st0" d="M431.6,322.8l-19.2-61.6H291l-18.7,61.6h-42.4l96.7-316l50.7,0l96.7,316H431.6z M311.5,186.1h80.7l-23-71
		h-34.7L311.5,186.1z"/>
	<path d="M327.3,7.7l49.2,0l96.1,314h-40.3l-18.7-60.2l-0.4-1.4h-1.5H291.8h-1.5l-0.4,1.4l-18.3,60.1h-40.3L327.3,7.7 M310.1,187.1
		h2.8h77.9h2.8l-0.8-2.6l-22.4-69l-0.4-1.4h-1.5h-33.2h-1.5l-0.4,1.4l-22.4,69L310.1,187.1 M325.9,5.7l-97.3,318H273l18.7-61.5
		h119.9l19.2,61.6h44.5L378,5.8L325.9,5.7L325.9,5.7z M312.9,185.1l22.4-69h33.2l22.4,69H312.9L312.9,185.1z"/>
</g>
<g>
	<path class="st0" d="M614.7,322.7c-24.2,0-42.4-11.8-42.4-27.5c0-15,19.4-27.8,42.4-27.8c23.8,0,43.9,12.7,43.9,27.8
		C658.6,310.6,639.3,322.7,614.7,322.7z"/>
	<path d="M614.7,268.4c23.3,0,42.9,12.2,42.9,26.8c0,7-4.3,13.6-12.1,18.6c-8.1,5.1-19,8-30.8,8c-23.6,0-41.5-11.4-41.5-26.5
		C573.2,280.7,592.2,268.4,614.7,268.4 M614.7,266.4c-23.9,0-43.5,13.2-43.5,28.8c0,16.4,18.5,28.5,43.5,28.5
		c25.1,0,44.9-12.5,44.9-28.5C659.6,279.6,639.4,266.4,614.7,266.4L614.7,266.4z"/>
</g>
<g>
	<path class="st0" d="M877.1,328.9c-35.9,0-61.8-13.1-79.2-40.2c-17.5-27.2-26.1-67.6-26.1-123.7C771.8,54.7,806.2,1,877.1,1
		c71,0,105.5,53.7,105.5,164.1C982.6,275.3,948.1,328.9,877.1,328.9z M877.1,76.6c-22,0-38,10.3-47.8,30.6
		c-10.1,21.1-14.6,33-14.6,57.9c0,26,5.3,38.3,14.6,57.7c9.7,20.3,25.8,30.6,47.8,30.6c22.3,0,38.5-10.3,48.2-30.6
		c9.8-20.2,14.4-32.5,14.4-57.7c0-25.3-4.6-37.6-14.4-57.9C915.6,86.8,899.3,76.6,877.1,76.6z"/>
	<path d="M877.1,2c17.6,0,33,3.4,46,10c13,6.6,23.9,16.7,32.5,30c8.6,13.4,15.2,30.5,19.5,50.9c4.3,20.4,6.5,44.7,6.5,72.2
		c0,27.5-2.2,51.7-6.5,72.1c-4.3,20.3-10.9,37.4-19.5,50.8c-8.6,13.3-19.5,23.4-32.5,30c-13,6.6-28.5,10-46,10
		c-17.6,0-33-3.3-46-9.9c-12.9-6.6-23.8-16.6-32.4-29.9c-8.6-13.4-15.1-30.4-19.4-50.8c-4.3-20.4-6.5-44.7-6.5-72.3
		c0-27.5,2.2-51.8,6.5-72.2c4.3-20.3,10.9-37.5,19.5-50.9c8.6-13.3,19.5-23.4,32.4-30C844.1,5.4,859.6,2,877.1,2 M877.1,254.4
		c22.7,0,39.2-10.5,49.1-31.1c9.8-20.3,14.5-32.7,14.5-58.2c0-25.5-4.6-37.9-14.5-58.4c-9.9-20.7-26.4-31.1-49.1-31.1
		c-22.4,0-38.8,10.5-48.7,31.1c-9.1,19-14.7,31.9-14.7,58.4c0,26.2,5.3,38.6,14.7,58.2C838.3,243.9,854.7,254.4,877.1,254.4
		 M877.1,0c-71.6,0-106.3,54.1-106.3,165.1c0,111.4,34.5,164.9,106.3,164.9c71.8,0,106.5-54.1,106.5-164.9
		C983.6,54.1,948.9,0,877.1,0L877.1,0z M877.1,252.4c-21.7,0-37.3-10-46.9-30s-14.5-31.9-14.5-57.3s4.9-37.5,14.5-57.5
		s25.1-30,46.9-30c21.9,0,37.7,10,47.3,30c9.6,20,14.3,32.2,14.3,57.5s-4.7,37.5-14.3,57.3C914.8,242.4,899,252.4,877.1,252.4
		L877.1,252.4z"/>
</g>
<g>
	<polygon class="st0" points="1187.6,322.8 1078.6,143.6 1078.6,322.7 1039.1,322.7 1039.1,6.8 1092,6.8 1201,207.5 1201,6.8 
		1240.5,6.8 1240.5,322.8 	"/>
	<path d="M1239.5,7.8v314h-51.4l-106.8-175.6l-3.7-6.1v7.1v174.6h-37.5V7.8h51.3l106.8,196.8l3.8,6.9v-7.9V7.8H1239.5 M1241.5,5.8
		H1200v197.9L1092.6,5.8h-54.5v318h41.5V147.2L1187,323.8h54.5V5.8L1241.5,5.8z"/>
</g>
<g>
	<polygon class="st0" points="1317.9,322.7 1317.9,6.8 1359.2,6.8 1359.2,245.9 1512.7,245.9 1512.7,322.7 	"/>
	<path d="M1358.2,7.8v237.2v2h2h151.6v74.8h-192.8V7.8H1358.2 M1360.2,5.8h-43.2v318h196.8v-78.8h-153.6V5.8L1360.2,5.8z"/>
</g>
<g>
	<polygon class="st0" points="1644.2,322.7 1644.2,180.7 1543.4,6.8 1608.1,6.8 1664.9,103.6 1721.5,6.8 1786.7,6.8 1685.5,180.7 
		1685.5,322.7 	"/>
	<path d="M1785,7.8L1684.7,180l-0.3,0.5v0.5v140.7h-39.2V181v-0.5l-0.3-0.5L1545.1,7.8h62.5l55.7,94.9l1.7,2.9l1.7-2.9l55.4-94.8
		H1785 M1788.5,5.8h-67.5l-56,95.8l-56.2-95.8h-67.1L1643.2,181v142.7h43.2V181L1788.5,5.8L1788.5,5.8z"/>
</g>
<g>
	<path class="st0" d="M1976.7,320.9c-24.2,0-42.4-11.8-42.4-27.5c0-15,19.4-27.8,42.4-27.8c23.8,0,43.9,12.7,43.9,27.8
		C2020.6,308.8,2001.3,320.9,1976.7,320.9z"/>
	<path d="M1976.7,266.6c23.3,0,42.9,12.3,42.9,26.8c0,7-4.3,13.6-12.1,18.6c-8.1,5.1-19,8-30.8,8c-23.6,0-41.4-11.4-41.4-26.5
		C1935.2,278.8,1954.2,266.6,1976.7,266.6 M1976.7,264.6c-23.9,0-43.4,13.2-43.4,28.8c0,16.4,18.5,28.5,43.4,28.5
		c25.1,0,44.9-12.6,44.9-28.5C2021.6,277.8,2001.4,264.6,1976.7,264.6L1976.7,264.6z"/>
</g>
<g>
	<path class="st0" d="M1976.7,155.9c-24.2,0-42.4-11.8-42.4-27.5c0-15,19.4-27.8,42.4-27.8c23.8,0,43.9,12.7,43.9,27.8
		C2020.6,143.8,2001.3,155.9,1976.7,155.9z"/>
	<path d="M1976.7,101.6c23.3,0,42.9,12.3,42.9,26.8c0,7-4.3,13.6-12.1,18.6c-8.1,5.1-19,8-30.8,8c-23.6,0-41.4-11.4-41.4-26.5
		C1935.2,113.8,1954.2,101.6,1976.7,101.6 M1976.7,99.6c-23.9,0-43.4,13.2-43.4,28.8c0,16.4,18.5,28.5,43.4,28.5
		c25.1,0,44.9-12.6,44.9-28.5C2021.6,112.8,2001.4,99.6,1976.7,99.6L1976.7,99.6z"/>
</g>
<g>
	<path class="st0" d="M2150,411.6V84.3h37.4v33.4l1.9-3.4c12.8-23.3,34.5-35.7,62.8-35.7c57.3,0,91.4,46.8,91.4,125.1
		c0,37.8-8.5,69.1-24.5,90.7c-15.9,21.4-39.1,32.7-66.9,32.7c-28.7,0-50.4-12.3-62.8-35.7l-1.9-3.5v123.8H2150z M2246.4,152.4
		c-39.2,0-58.9,32.3-58.9,50.4c0,10,5.9,22.5,14.9,32c8,8.4,22.2,18.4,44,18.4c38.7,0,58.1-32.3,58.1-50.4S2285,152.4,2246.4,152.4z
		"/>
	<path d="M2252.1,79.6c56.6,0,90.4,46.4,90.4,124.1c0,37.6-8.4,68.7-24.3,90.1c-15.7,21.1-38.6,32.3-66.1,32.3
		c-28.3,0-49.7-12.2-61.9-35.1l-3.8-7.1v8v118.8H2151V85.3h35.4v28.5v7.8l3.8-6.8c6.3-11.4,14.8-20.2,25.3-26.2
		C2226,82.6,2238.3,79.6,2252.1,79.6 M2246.4,254.2c22,0,36.1-10.1,44.1-18.5c9.2-9.7,15-22.3,15-32.9c0-10.5-5.7-23.1-15-32.9
		c-8-8.5-22.2-18.5-44.1-18.5c-22.2,0-36.5,10.1-44.7,18.6c-9.2,9.6-15.2,22.5-15.2,32.8c0,10.2,6,23.1,15.2,32.7
		C2209.8,244,2224.2,254.2,2246.4,254.2 M2252.1,77.6c-28.3,0-50.7,12.6-63.7,36.2V83.3H2149v329.3h39.4V291.8
		c12.6,23.6,34.7,36.2,63.7,36.2c57.3,0,92.4-46.9,92.4-124.4C2344.6,124.6,2309.8,77.6,2252.1,77.6L2252.1,77.6z M2246.4,252.2
		c-38.1,0-57.9-31.7-57.9-49.4c0-17.9,19.8-49.4,57.9-49.4c37.7,0,57.1,31.3,57.1,49.4S2284.1,252.2,2246.4,252.2L2246.4,252.2z"/>
</g>
</svg>
