<?xml version="1.0" encoding="utf-8"?>
<!-- Generator: Adobe Illustrator 24.3.0, SVG Export Plug-In . SVG Version: 6.00 Build 0)  -->
<svg version="1.1" id="Layer_1" xmlns="http://www.w3.org/2000/svg" xmlns:xlink="http://www.w3.org/1999/xlink" x="0px" y="0px"
	 viewBox="0 0 322.2 362.3" style="enable-background:new 0 0 322.2 362.3;" xml:space="preserve">
<style type="text/css">
	.st0{fill:url(#SVGID_1_);}
	.st1{fill:url(#SVGID_2_);}
	.st2{fill:url(#SVGID_3_);}
</style>
<linearGradient id="SVGID_1_" gradientUnits="userSpaceOnUse" x1="36.8133" y1="181.5961" x2="145.8133" y2="181.5961">
	<stop  offset="0" style="stop-color:#C66095"/>
	<stop  offset="0.25" style="stop-color:#F699C5"/>
	<stop  offset="0.5" style="stop-color:#F9BBDC"/>
	<stop  offset="0.75" style="stop-color:#F699C5"/>
	<stop  offset="1" style="stop-color:#C66095"/>
</linearGradient>
<path class="st0" d="M124.8,345.6H57.8c-11.6,0-21-9.4-21-21V38.6c0-11.6,9.4-21,21-21h66.9c11.6,0,21,9.4,21,21v285.9
	C145.8,336.2,136.4,345.6,124.8,345.6z"/>
<linearGradient id="SVGID_2_" gradientUnits="userSpaceOnUse" x1="176.8133" y1="181.5961" x2="285.8133" y2="181.5961">
	<stop  offset="0" style="stop-color:#C66095"/>
	<stop  offset="0.25" style="stop-color:#F699C5"/>
	<stop  offset="0.5" style="stop-color:#F9BBDC"/>
	<stop  offset="0.75" style="stop-color:#F699C5"/>
	<stop  offset="1" style="stop-color:#C66095"/>
</linearGradient>
<path class="st1" d="M264.8,345.6h-66.9c-11.6,0-21-9.4-21-21V38.6c0-11.6,9.4-21,21-21h66.9c11.6,0,21,9.4,21,21v285.9
	C285.8,336.2,276.4,345.6,264.8,345.6z"/>
</svg>
