<?xml version="1.0" encoding="utf-8"?>
<!-- Generator: Adobe Illustrator 24.3.0, SVG Export Plug-In . SVG Version: 6.00 Build 0)  -->
<svg version="1.1" id="Layer_1" xmlns="http://www.w3.org/2000/svg" xmlns:xlink="http://www.w3.org/1999/xlink" x="0px" y="0px"
	 viewBox="0 0 117 99.7" style="enable-background:new 0 0 117 99.7;" xml:space="preserve">
<style type="text/css">
	.st0{fill:#EFCF4B;}
</style>
<g id="CAtlk3_1_">
	<g>
		<path class="st0" d="M83.2,9.4c-5.5-4.9-5.8,2-9.9,2.9c-1.2-7.3-16.1-7.2-15.8,4.4c-4.6,0.7,3.9-10-3.1-6.7c-4.9-5.1,4.4,1.2,11-7
			c16.9-6.8,2.7,4.2,7.7,4.5c6.6-3.1,9.8-3.1,16.5-3.4c4.6,1.3,3.7-6.5,4.8,0c16.6-2.1-3.1,2.6-0.6,3.1c8.4-0.1,3.3,4.4,0.9,5.7
			C94.9,9,87.5,6.1,83.2,9.4z"/>
		<path class="st0" d="M22,19.5c-4.9-1.1-9.6,1.5-3.2,4.6c-8,1.2-4,2.3-12.3,0.3c-10.9,3.7-5-6,2.9-4.1c7-4.5-3.4-0.4,2-6.1
			c-8.7,4-4.2-3.6,0.5-4.4c-5.6,2.8,4.5,3.4,1.5,5.4c-1.6,6.8,8.6,0,7.2-4.3C20.4,13.4,26,15,22,19.5z"/>
		<path class="st0" d="M0.5,50.5c5.2-4.4,3.1-1,0.5,2.6c8.9,2.6,5.2-8.4,12.4-7.1c3.9,0.8,8-0.9,3.3,2.7C1.8,53.5,14.5,57,22.4,50
			c-3.3,4.2-0.8,12.7-6.9,6.4C17.2,60.9-2.7,59.7,0.5,50.5z"/>
		<path class="st0" d="M43.5,0.5C39.7,6.4,19.6,18.9,25.3,9c-2.7-6.7-4.7,2.5-8.3-2.7c4.1-4.7,9,1.8,10.8-2.8
			c1.5,1.9-3.9,7.8,0.3,3.9c4.7-6.3,3-1.9,5.4,1.7C34.3,4.5,38-0.5,43.5,0.5z"/>
		<path class="st0" d="M42.6,16.3C38.4,5.7,64.8-4.8,62.9,2.3C48.2,8,52.2,1.9,42.6,16.3z M54.9,1.5c1.3,1.3-0.7,1.6-1.5,2.3
			C56.1,5.6,57.8-0.1,54.9,1.5z"/>
		<path class="st0" d="M116.6,7.1c-4.7,0.6-18.3,8.6-12.9,4.1c-7.5,3.9-1.3-5.5-0.9-10c4.6-0.1,1.9,4.9,0.5,7.8
			C108,8.7,113.7,4.1,116.6,7.1z"/>
		<path class="st0" d="M116.6,93.3c-2.9,0.8-13.1,5.7-7.7,0.8c-9.8,0.5-5.3,3.8-3.1,5.3c-10,1.7,0-5.5-8.1-6.9
			C103.2,92.7,114,91.5,116.6,93.3z"/>
		<path class="st0" d="M0.5,69.3c16.4-19.2,15.2,1.7,8.8-5.1C7.6,66,1,73.2,0.5,69.3z"/>
		<path class="st0" d="M0.5,15.8c4.8,1.6,1.2-8.6,7.1-6.5c-1,1.8-5.4,3.8-1.7,6.3c3.7-0.1,3,3-1.3,1.3C9.3,22.2-2.6,23.9,0.5,15.8z"
			/>
		<path class="st0" d="M22.4,3.8C24.3-0.6,18.4,3,17,5.3c-0.1,0.9,0.6,4.1-1.3,3.9c-1.7-1.6-2.8-0.7-4,0.7c-0.9-2-1-2.7,2.9-4.6
			C4.6,4.7,32.7-4.2,22.4,3.8z"/>
		<path class="st0" d="M109,0.5c11.2-0.6,6.8,1.9,2.7,5.6C108.4,4.7,104,8.1,109,0.5z"/>
		<path class="st0" d="M116.6,63.7c-12.7,7.8,5.9-1.3-14-5.9C92.6,53.4,119.5,60.6,116.6,63.7z"/>
		<path class="st0" d="M0.5,32.6c3-1.1,4.2-5.4,7.4-5.4c-1,1.9-5.7,5.7-1.2,5.5c6.4-5,0.8-4.1,3.9,2.7C7.9,34.6,0.3,34.9,0.5,32.6z"
			/>
		<path class="st0" d="M116.6,69.8c-4.1,4-17.5,6.3-6,1.3C93.9,70.4,113.2,65.6,116.6,69.8z"/>
		<path class="st0" d="M110.1,43.9c-2.4-2.7,9.2-11.7,6.5-3.2C114.3,42.1,111.5,41.7,110.1,43.9z"/>
		<path class="st0" d="M112.6,15.3c-6.4-4.5,1.3-1.4,4-6.7C116.7,12.6,117.3,15.7,112.6,15.3z"/>
		<path class="st0" d="M116.6,18.8c-1.1,1.7-9.2,4.1-4.6,0.8C105.2,12.4,116.1,16.7,116.6,18.8z"/>
		<path class="st0" d="M80.3,4.6c-8.4-1.2-2.2-4.8,3.2-4.1C83.3,2.8,82.2,4.1,80.3,4.6z"/>
		<path class="st0" d="M63.7,99.4c2.5-3.6,5.6-3.6,11.4-2.6C71.3,97.9,67.5,98.8,63.7,99.4z"/>
		<path class="st0" d="M108.3,37.1c-1.8-5.1,8.4-5.6,8.3-2.5C113.5,34.6,110.2,34.5,108.3,37.1z"/>
		<path class="st0" d="M45.8,99.4c-0.7-4.8,0.7-6.8,6.3-3.5C49.4,95.3,47.8,97.9,45.8,99.4z"/>
		<path class="st0" d="M21.1,99.4c0.7-1.3,1.7-1.8-0.7-1.8C26.6,89.6,27.3,99.3,21.1,99.4z"/>
		<path class="st0" d="M0.5,45.4c3.6-0.4,4-7.8,5.8-2.1C3.8,43.5,0.6,51.7,0.5,45.4z"/>
		<path class="st0" d="M27.8,3.6c0.7-3.8,3.6-3.1,6.8-3.1C32.8,2.4,30.6,4.2,27.8,3.6z"/>
		<path class="st0" d="M27,99.4c0.2-7.3,1-1.2,3.2-7.1C32.3,94.9,28.5,98.5,27,99.4z"/>
		<path class="st0" d="M98.7,3c-4.9-1.5,3.3-4.1,4.1-1.9C102.1,3.4,100.8,3.4,98.7,3z"/>
		<path class="st0" d="M112.2,47.8c1.6-0.2,5-2.8,4.4,0.1C115.1,49.3,110.8,51.5,112.2,47.8z"/>
		<path class="st0" d="M29.6,99.4c3.3-0.2,3.5-5.8,7.6-5.2C34.6,95.9,34.1,100.4,29.6,99.4z"/>
		<path class="st0" d="M116.6,54.5c-2.2,0.5-4.7,0.6-5.5-2C113,53.6,117.2,51.7,116.6,54.5z"/>
		<path class="st0" d="M102.8,1.1c0.2-1.6,4.5-0.2,6.2-0.7C108.4,4,105.3,1.3,102.8,1.1z"/>
		<path class="st0" d="M91.9,0.5c-0.4,1.4-1.2,2.6-2.2,3.6C87.5,2,89.4-0.3,91.9,0.5z"/>
		<path class="st0" d="M0.5,94.3c2.1-0.4,3.2,0.4,3.3,2.7C1.8,97.2,0,96.6,0.5,94.3z"/>
		<path class="st0" d="M111.6,44.9c1.3-1.6,3-2.1,5-2.6C117.4,45.5,113.7,44.3,111.6,44.9z"/>
		<path class="st0" d="M0.5,59.6c1.2-0.4,2.4-0.9,3.6-1.3C2.3,59.8-0.1,64.3,0.5,59.6z"/>
		<path class="st0" d="M116.6,27c-0.5-0.2-1.1-0.3-1.6-0.5C115.9,25.3,116.6,25.4,116.6,27z"/>
		<path class="st0" d="M0.5,76.5c0.5,0.2,1.1,0.3,1.6,0.5C1.2,77.2,0.2,78,0.5,76.5z"/>
		<path class="st0" d="M0.5,24.4c0,0.3,0,0.7,0,1C0.5,25.1,0.5,24.8,0.5,24.4z"/>
		<path class="st0" d="M116.6,25.5C116.6,25.1,116.6,25.3,116.6,25.5C115.9,25.6,116.3,25.3,116.6,25.5z"/>
		<path class="st0" d="M89.2,17.1c-3,1.6-14.6,9.9-9.4,12c-12.5,3-2.6-14.1-13.2-1.8c0.1-11.5,13.7-1.3,16.9-9.3
			c0.8-5.5,4.7-3.2,7.9-7.1C93.6,15.3,90.8,14.2,89.2,17.1z"/>
		<path class="st0" d="M47.3,80.6c-4.7-0.8-7.4,4.3-9.7,7.7c-5.9,0.8,14.5-18.7,0.1-12.7c-1.1-3.5-2.7,1-3.9-0.5
			c2.2-3.6,10.2-4.3,7.6-1.4c4.9-0.3,3.1-7.1,9.7-6.1c-0.7-0.9-1.1-8.5,3.9-7.2c9,2-6.8,3.5-2.2,8.9c-11.5,0.6-1.8,3.6-7.9,7.1
			c-5.4,6.3,3.1-0.5,4.8-0.6C49.1,77.5,46.1,77.8,47.3,80.6z"/>
		<path class="st0" d="M57,76.5c-11.4,3.6-1.2,14.1-9.4,8.1c-0.9,8.2-7.9,5.8-4.7-1c6.7-0.8,4.1-5.9,11.4-8.7
			c-3.1-0.1-0.1-1.5,0.8-2.8c-2.3-1.5-2.7,0.6-3.5,1.6c-2.2-0.4-4.8-3.1-1.4-2.6c2.4,0.3,4.5-4.1,7-2.3C56.5,73.4,52.6,76.7,57,76.5
			z"/>
		<path class="st0" d="M27.7,71.1c-3.7,1.9-2-1.1-1.6-4c-4.7,4-10.9,0.9-12.6,7.4c-8.4,16.7,1.5-6.5-4-4.8c5.8-4.6,14-2.2,20.6-6.9
			C24.8,70.6,31.3,68.9,27.7,71.1z"/>
		<path class="st0" d="M63.8,63.7c-8.4,6.6,3.2-22.8,10.3-14.6c2,0.7,3.3,0.8,3.2-2.6c0.7,1.4,5,1.2,2.9,3.2c-1.9-1.1-3.2,1-4.3,1.8
			c-3.9-3.1-4.2,0-5.9,1.5C73.7,53.5,61.7,58.8,63.8,63.7z"/>
		<path class="st0" d="M24.9,38.9c-3.2,1.4-5-2.4-4.7,3.1c-4.2,3.4-6.3,2.7-6.1-0.2c-2.3,4.1-3.3,2-7.2,2.1
			c-0.2-3.3,1.9-4.4,3.9-0.9c0.1-3.2,0.2-3.9,3.5-3.5C22.9,38.7,22.1,31.3,24.9,38.9z"/>
		<path class="st0" d="M74,81.3c-6.1-5.4,10.5-4.5,9.5-11.1C87,57.7,88.4,81.3,74,81.3z"/>
		<path class="st0" d="M83.2,9.3c2.8,4.3-7.1,11.5-12.9,9.1C75.7,17.2,76.2,7,83.2,9.3z"/>
		<path class="st0" d="M43.1,44.3c1.7,0.3-1.7,6.7-1.8,8.2c-2.8,2.2-3.7-2.6-6.3,3.1c2,0.4,3.9-0.5,4.2,1.2
			C27.2,64,36.2,46.8,43.1,44.3z"/>
		<path class="st0" d="M80.9,48.4c-6.4-0.5,3.1-7.2,3.8-4c-3.8,7,3.6,13.7-5.9,15.8c1.3-3.3,5.4-3.7-0.8-6.7
			C75.1,53.5,87.5,47.5,80.9,48.4z"/>
		<path class="st0" d="M99.8,83.3c2.6,3.1-9.8,2.1-12.1,5.8c3.2-3.2,1.1-3.2-2.4-3c-1-2.1,11-4.2,5.9-1.5c4.4,1.1,8.1-6.7,13.5-3.3
			C102.8,84.4,104.6,83.8,99.8,83.3z"/>
		<path class="st0" d="M10.5,89.9c-4.7-7.2,8.7-11,3.9,0.9c2.5,0.5,2.5,1.1,0.1,2.3c-1.9-3.8-2.8,1.3-4.4,0.5c4.9,2,4.7,3.9-1.8,0.9
			C11.1,90.7,15.9,82.5,10.5,89.9z"/>
		<path class="st0" d="M46.2,51.7c0.3-6.9-0.6-6.1,11.6-6.1c5.4,4.7-6-0.8-6.8,3.9C48.3,51.5,43.6,60.8,46.2,51.7z"/>
		<path class="st0" d="M44.9,54.4c-1.2,3.7,6.5,9.4,0.4,5.2c-2.2,3.3-6.2-1.3-10.4,3.5C22.8,62.2,42.6,59.3,44.9,54.4z"/>
		<path class="st0" d="M56.8,33.6c-2.9-5.1,12.5-0.2,14.5-6.6c-1.1,2-0.5,7.6-3.1,7.1C64.1,29.9,60.3,37.3,56.8,33.6z"/>
		<path class="st0" d="M75.3,70.8c-2.8,0.5-10.3-2.9-7.3,2.8c-6.9-2.6-3.5-1.8-1.8-4.6c-2.2-0.3-1.6-2.4-3.3-1.2
			C72.2,63.7,71.2,67,75.3,70.8z"/>
		<path class="st0" d="M97.6,76.1c1,2.1-1.7,1.8-2.6,3.4c-4.4,2.8-17.2,4-6.8-0.6C92.9,77.2,103.9,70.7,97.6,76.1z"/>
		<path class="st0" d="M94.4,32.6c3.8,3.7-10.8,3-15.1,6.2c-1.6-2.7,5.6-3.6,0.2-2.7C82.5,32.3,89.6,34.5,94.4,32.6z"/>
		<path class="st0" d="M90.2,31c-3.6,1.2-3.9-2.1-11.5,0.2C85.9,24.1,88.9,24.1,90.2,31z"/>
		<path class="st0" d="M41.3,25.5c4.4,1.5,7-2,9.7-5C59.3,23.8,36,33.6,41.3,25.5z"/>
		<path class="st0" d="M36.8,22.9c1.3-2.7,8.4-10.7,6.1-3.3C42.8,21.5,36.2,35,36.8,22.9z"/>
		<path class="st0" d="M46.9,20.2C40,31.1,45.1,7.9,54.5,9.6C49.8,20,41,15.1,46.9,20.2z"/>
		<path class="st0" d="M101.8,14.5c-2,4.3,1.1,2.9,4,3.5c6.4,0.9-3.1,6.3-0.3,2.4c-2.7-0.7-4,0.9-6.1,1.9
			C96.5,22.4,98.6,13.8,101.8,14.5z"/>
		<path class="st0" d="M102.6,69.6c-3.9-0.7-11.8-3.7-3.5-3.5C109.5,62.4,109.5,60,102.6,69.6z"/>
		<path class="st0" d="M22.5,29.9c-4.7,3.3-1.4,6.2-7.8,7.5C16.7,31.3,23.6,21.7,22.5,29.9z"/>
		<path class="st0" d="M97.1,51.1c2.9-3.4-1.4-0.1-3.2-2.8C101.1,45,114.2,52.9,97.1,51.1z"/>
		<path class="st0" d="M92.6,45.3c1.1,0,2.7,0.7,3.2-0.7c-1.9-8.3,5.8,3.2,7.4-3.4c0.3,2.2-1.6,5.3-3.5,4.8
			C98.1,41.5,92.5,50.9,92.6,45.3z"/>
		<path class="st0" d="M29.6,70.2c1.7-2.9,3-7.6,8.4-5.9C35.4,63.3,31.1,78.3,29.6,70.2z"/>
		<path class="st0" d="M66.1,8.1c4.7,7.8-0.2,5.1-5.7,7.1C69.7,9.6,56.6,12.3,66.1,8.1z"/>
		<path class="st0" d="M115.7,77.6c-6,3.7-8.8,7.2-4.3-2.5C116.4,70.2,109.9,75.2,115.7,77.6z"/>
		<path class="st0" d="M33.2,48.4c2.9-3.7,1.2-7.5,1.4-8.5c2.5,0.9,3.2-1.2,4.2-2.9C42.6,34.5,35,50.4,33.2,48.4z"/>
		<path class="st0" d="M68.1,85.3c-1.6,4.8-10.2,7.1-8,3.5c0.3-3.5,3.6-1.3,5.1-3.1C66.4,83.1,66.6,83,68.1,85.3z"/>
		<path class="st0" d="M114.7,83.1c-3.9,3.2-6,9.2-11.7,7.7C107,88.5,109.7,83.7,114.7,83.1z"/>
		<path class="st0" d="M31,74.5c0.5,4.5,6.3,2.2,9.1,2.4c-2.1,2-4.1,2.4-6.5,1.3C28.6,80.4,24,86,31,74.5z"/>
		<path class="st0" d="M30.1,23.9c12.5-16,5.7,7.2,2.7,1.5C36.3,22.5,32.2,23.6,30.1,23.9z"/>
		<path class="st0" d="M62.1,19.9c-7.3,4.7-6.8-2.4,1-1.9C68.6,13.1,67.2,22,62.1,19.9z"/>
		<path class="st0" d="M29.7,89.8c-0.8-3.3,5.8-7.1,8.2-8.6C36.1,85.7,33.8,88.6,29.7,89.8z"/>
		<path class="st0" d="M71.7,43.3c5.2,0.8,11.4-6.9,14.9-3C79.7,42.2,78.7,45.8,71.7,43.3z"/>
		<path class="st0" d="M97.4,21.4c5.4,1.3,1.2,7.7-2.6,7.7C101.2,21.5,93.3,26.7,97.4,21.4z"/>
		<path class="st0" d="M101.5,70.8c-2.4,1.3-4.7,2.5-7.2,3.8C93.1,69.4,98,67.8,101.5,70.8z"/>
		<path class="st0" d="M29.6,89.7c-7.5,8.3-10.5-2.4-2-2.4C23.3,90.5,26,90.5,29.6,89.7z"/>
		<path class="st0" d="M56.1,43.9c-4.1-1.6-10.4-1.7-7.6-5.2C56.7,40.2,52.3,39.1,56.1,43.9z"/>
		<path class="st0" d="M98,55.8c-1.3-1.5-2.3-2.2-3.8-0.8C85.7,49.4,103.1,50.4,98,55.8z"/>
		<path class="st0" d="M63.8,63.7c2.5-0.3,6-2.8,8.6-4.3C73.5,63.1,65.8,66.1,63.8,63.7z"/>
		<path class="st0" d="M61.4,24.1c-1.5,7.3-4-1-6.9,2.1C52.8,24.1,65.8,21,61.4,24.1z"/>
		<path class="st0" d="M86.5,40.2c7.8,0,8.5,2.7,1.7,3C85.9,43.9,88,40.9,86.5,40.2z"/>
		<path class="st0" d="M92.7,20.5c1.6-1.6-0.9-3.6,3.4-4.6C98,18.7,92.1,26.8,92.7,20.5z"/>
		<path class="st0" d="M56.7,47.5c0.3,2.1,7.6,8.4,1.5,3.3C56.9,57.7,52.6,48,56.7,47.5z"/>
		<path class="st0" d="M36.3,67.8c1.7-2.9,3.7-2,4.9-4.6C41.9,66.5,39.5,72.5,36.3,67.8z"/>
		<path class="st0" d="M7.6,71.3c-0.1,3.9,0.8,6.1-3.3,8.7C2.8,77,6.6,74.6,7.6,71.3z"/>
		<path class="st0" d="M69.5,34.3c1.9-2.9,6-1.2,8.1-1.9C76.8,35,71.1,36,69.5,34.3z"/>
		<path class="st0" d="M35,34.5c3.2-0.4,4.8-2.4,5.7-5.1C43.7,34.6,40,36.3,35,34.5z"/>
		<path class="st0" d="M60.5,39c0-2.6,1.7-1.6,3.1-2.8C71,32,65.3,40.1,60.5,39z"/>
		<path class="st0" d="M70,90.7C67,88.8,74,85.9,76.1,87C70.4,88,74.2,93.3,70,90.7z"/>
		<path class="st0" d="M27.9,58.6c1.6,4.1-1.6,3.3-4.4,3.1C24,60.2,27.3,57,27.9,58.6z"/>
		<path class="st0" d="M9.5,82.1c-1.1,2.8-3.5,3.1-5.7,4.5C4.2,82.2,5.6,81.8,9.5,82.1z"/>
		<path class="st0" d="M108.3,37.1c0.7,2.7-3.4,2.8-5.2,4.2C103.7,38.2,106.1,35.2,108.3,37.1z"/>
		<path class="st0" d="M56.6,81c-4.3-1.8,5.3-5.5,5.3-1.7C59.1,77.1,59.2,81,56.6,81z"/>
		<path class="st0" d="M74,81.3c-0.3,2.1-1.3,4.6-3.7,5c3.3-4.2,2.5-4.4-2.6-3.5C69.4,79.2,71,81.6,74,81.3z"/>
		<path class="st0" d="M87.5,58.1c-2-3.5,12-1,3.7,0.7C90.1,55.6,89.8,62.8,87.5,58.1z"/>
		<path class="st0" d="M82,96.1c-0.8-1.6-1.3-1.9-2.3,0.2C73.7,93.7,92.1,89.1,82,96.1z"/>
		<path class="st0" d="M110,44c4.3,3.1-3.7-0.9-3.3,3.5C102.3,47.7,106.1,42.9,110,44z"/>
		<path class="st0" d="M56.8,33.6c-2.4,1.4-1.9,4.2-5.9,4.8C51.4,35.7,54.2,32.6,56.8,33.6z"/>
		<path class="st0" d="M61.3,70c-6.8,1.4-2.7-1.8,0.5-4.2C62.6,67,61.3,68.9,61.3,70z"/>
		<path class="st0" d="M108.9,78c-2,0.8-4,1.5-6.2,2.4C102.9,77.4,105.8,75.6,108.9,78z"/>
		<path class="st0" d="M19.8,46.6c0.4-2.3,0.6-2.8,4.4-1.3C21.1,46.9,17.5,52.2,19.8,46.6z"/>
		<path class="st0" d="M91.7,91.7c2.1-1.6,3.6-6.1,5.6-1.7C95.7,90.2,92.4,93.1,91.7,91.7z"/>
		<path class="st0" d="M102.5,60.8c-0.7-0.2-1.3-0.4-2.6-0.8c2.4,2.8-1.3,5.4-3.4,4.1C97.5,62.3,102,57,102.5,60.8z"/>
		<path class="st0" d="M24.9,38.9c-1.2-1.1,2.4-5.7,4.1-6.4C27.6,34.4,28,39.4,24.9,38.9z"/>
		<path class="st0" d="M25.7,43c1.5-4.2,6.5-11.2,3.3-4C29.1,41.1,28.1,42.7,25.7,43z"/>
		<path class="st0" d="M28.7,47.1c-9.4,0.7,3.7-8.7-1.1-0.7C27.7,46.5,28.2,47,28.7,47.1z"/>
		<path class="st0" d="M2.7,94.3c1.4-1.4,4.4-2,3.4-4.7C10.9,90.9,5.4,95.8,2.7,94.3z"/>
		<path class="st0" d="M87.4,58c-3.1,5.3-2.4,1.7,0.7,4.6C82.4,63.2,82.8,59.2,87.4,58z"/>
		<path class="st0" d="M78,53.5c1.9,4.8-8.9-1.1-2.2-2C75.2,53.5,77.2,53.2,78,53.5z"/>
		<path class="st0" d="M8.9,35.9c0.1,3-2.1,4.5-4.6,3.2C7.8,34.8,7.6,39.3,8.9,35.9z"/>
		<path class="st0" d="M40.8,92.6c2-1.9,3.4-4,4.4-0.3C42.6,90.3,42,96.8,40.8,92.6z"/>
		<path class="st0" d="M103.5,55.1c1.5-1.6,2.7-3.8,5.4-2.8C107.2,54.3,106.1,55.7,103.5,55.1z"/>
		<path class="st0" d="M19,78.9c2.5-4.3,1.8-2.6,1.6,0.4C23.9,75.9,21.5,85.5,19,78.9z"/>
		<path class="st0" d="M29.1,32.5c-1.1-5.8,0.8-6.2,3.3-1.1C31.3,30.8,29.5,29.5,29.1,32.5z"/>
		<path class="st0" d="M86.5,52.3c-1.8-3,1.1-5.5,3.9-6.1C88.9,48.2,88,49.9,86.5,52.3z"/>
		<path class="st0" d="M36.7,92.9c-1.1,0-2.1,0-3.9,0C35,89.5,38.2,88.8,36.7,92.9z"/>
		<path class="st0" d="M98.3,96c0.8,4.6-9.2,1.2-4.2-0.1C95.4,98.8,96.8,96.6,98.3,96z"/>
		<path class="st0" d="M26.9,78.3c-2.1,3.3-2.2,3.3-4,0C24.3,78.3,25.6,78.3,26.9,78.3z"/>
		<path class="st0" d="M70,90.7c-0.1,5.1-3.6,5.5-1.5,1C64.6,94.1,67,90.5,70,90.7z"/>
		<path class="st0" d="M19.8,83.5c4.7,0,0.1,5.3-3.1,0.3C18.1,84.1,20.9,86.5,19.8,83.5z"/>
		<path class="st0" d="M12.5,26.8c0,2.7,2.3,6.3-2.1,5.4C11.1,30.2,12.1,28.5,12.5,26.8z"/>
		<path class="st0" d="M82.2,70.4c-2.5,2.7-4.4,2.3-2.3-1C80.5,68.9,82.1,68.2,82.2,70.4z"/>
		<path class="st0" d="M83.3,62.1c-1.7-0.7-9.1-1-3.5-2.3C80.9,60.6,82.9,59.9,83.3,62.1z"/>
		<path class="st0" d="M87.9,46.7c-4.1,1.5-0.6-0.7-3.1-2.4C86.1,45,89.1,44,87.9,46.7z"/>
		<path class="st0" d="M85.1,11.4c3.2-2.5,7-1.2,1.9,1C86.5,12.7,85.7,11.4,85.1,11.4z"/>
		<path class="st0" d="M23.8,22.2c-2.3,0.1,2.6,5.4-2,1.8C22.1,21.4,21,17.3,23.8,22.2z"/>
		<path class="st0" d="M28.7,47.1c2.5,1,5.4,0.2,4.1,3.6C31.2,49.6,26.4,49.1,28.7,47.1z"/>
		<path class="st0" d="M103.4,88.1c-2.4-0.5-3.1,4.2-4.7,2.3C99.5,88.2,100.9,86.9,103.4,88.1z"/>
		<path class="st0" d="M40.8,92.6c-0.4,2.1-3.9,2-4.1,0.3C38.2,93.4,41.5,89.4,40.8,92.6z"/>
		<path class="st0" d="M48.3,64.1c-1.7,1.2-2.3,1.6-3.8,2.6C43.9,64.7,46.1,62.9,48.3,64.1z"/>
		<path class="st0" d="M53,87.5c-0.4,5.7-0.4,5.7-2.1,5.6C51.7,91.1,52.4,89.3,53,87.5z"/>
		<path class="st0" d="M112.2,47.7c-1.4,0.6-1.6,3.6-3.8,2.4C108.9,47.9,111,47,112.2,47.7z"/>
		<path class="st0" d="M17,31.9c-1.3,0.6-2,1.1-3.3,0.5C14.1,30.3,16.9,29.1,17,31.9z"/>
		<path class="st0" d="M75.4,70.9c-0.7-1.9-0.5-3.1,1.4-4.5C77.7,69.2,77,69.9,75.4,70.9z"/>
		<path class="st0" d="M77.5,90.5c1.5-1.5,2.8-2.8,4.2-4.2C80.5,90.2,80.5,90.2,77.5,90.5z"/>
		<path class="st0" d="M113.8,55c-0.4,2.1-1.7,2-3.9,1.9C110.7,54.7,112.1,54.4,113.8,55z"/>
		<path class="st0" d="M104.3,73.2c-1.9,1.4-1.2,5-4.2,5.8C101.6,77.4,102.4,71.5,104.3,73.2z"/>
		<path class="st0" d="M49.9,54.8c1.1-0.5,2.1-1,3.6-1.7C53.4,55.8,51,57.4,49.9,54.8z"/>
		<path class="st0" d="M67,57.6c1.4-1.4,2.3-2.4,4.3-0.8C70,58.3,68.6,59,67,57.6z"/>
		<path class="st0" d="M77.2,46.6c-1.1,2-3.3,0-4.3-2C74.1,45.3,78,44.8,77.2,46.6z"/>
		<path class="st0" d="M66.2,75.9c1-1.6,3-2,6.1-0.9C70.4,75.3,68.4,75.6,66.2,75.9z"/>
		<path class="st0" d="M74.3,54.5c-0.8,5.2,0.4,0.4-3.9,1.6C71.8,54.3,72.8,53.6,74.3,54.5z"/>
		<path class="st0" d="M53.5,15.5c0.5,2.4-1,2.9-2.6,3.2C49.7,18.1,52.7,14.1,53.5,15.5z"/>
		<path class="st0" d="M74.9,60c2.3,1.5,0,1.1-1.3,0.9C73.1,57.8,82.5,57.6,74.9,60z"/>
		<path class="st0" d="M35.4,31.4c-0.2,2.8-2.2,2.9-4.1,3.7C31.6,33.2,33.9,31.3,35.4,31.4z"/>
		<path class="st0" d="M76.7,63.3c1.5,0.2,5-1.6,5.2,0.1C80.3,63.2,76.7,65.3,76.7,63.3z"/>
		<path class="st0" d="M57.8,45.6c-3-1.7-0.1-2.5,1.9-3.1C59,43.5,58.4,44.5,57.8,45.6z"/>
		<path class="st0" d="M35.4,31.4c2.2-1.8-1-0.6-0.8-2.2C38,27.6,39.4,32.7,35.4,31.4z"/>
		<path class="st0" d="M19,78.8c-1.7,0.9-3.3,1.8-4.9,2.7C14.5,78.6,16.1,78.1,19,78.8z"/>
		<path class="st0" d="M3.2,74.2c-2.1-2,0.4-2.8,0.9-4.9C5.5,70.6,3.9,72.8,3.2,74.2z"/>
		<path class="st0" d="M78.8,86.1c0.6-1.8,2.3-4.2,3.9-2.3C81.7,84.4,80.6,85.1,78.8,86.1z"/>
		<path class="st0" d="M30.2,53c-1.3,1.3-1.6,3.5-2.9,2.9C27.5,53.7,27.4,52.3,30.2,53z"/>
		<path class="st0" d="M74,37.1c1.5-0.7,3.1-1.3,4.7-2C78.5,38.4,74.6,37.9,74,37.1z"/>
		<path class="st0" d="M20.6,95.5c-1.5,2.3-3.9,3.1-4.9,1.7C17.3,96.6,19,96.1,20.6,95.5z"/>
		<path class="st0" d="M61.4,24.1c1-0.3,2.4-1.1,4-1.8C63.9,25.2,63.6,26,61.4,24.1z"/>
		<path class="st0" d="M113.7,29.3c-2.7,0.3-5.5,4.8-9.3,6.2c12.1-14.1,4-3.7-2.8-8.5c2.3,0.1,10-2.8,7.1-5.6
			C115.4,24.7,113.2,20.5,113.7,29.3z"/>
		<path class="st0" d="M23.8,22.2c1.6-4.2,7.1-14.7,9.8-6.2C30.5,11.6,29.9,20.9,23.8,22.2z"/>
		<path class="st0" d="M41.8,9.1c-1,2.4-1.6,5.9-2.3,1.1c-0.7,1.5-0.9,3.4-2.6,1.7C28,15.2,38.5,7.5,41.8,9.1z"/>
		<path class="st0" d="M7.7,7.5C8,6.1,8.3,4.8,8.8,2.9C12.3,4.9,11.2,8.1,7.7,7.5z"/>
		<path class="st0" d="M20.7,9.4c-0.2-0.6-1-1.5-0.1-1.3C22.1,8,21.5,8.8,20.7,9.4z"/>
		<path class="st0" d="M21.1,8C21.6,8.4,21.7,8.6,21.1,8C21.1,8.1,21,8.1,21.1,8z"/>
		<path class="st0" d="M107.2,14.9c0.3-2.1,0.5-2.8-2.2-2.5C109.1,7.9,110.8,12.7,107.2,14.9z"/>
		<path class="st0" d="M115,26.5c-0.2,0.7-0.2,2-1.2,0.5C114.2,26.8,114.6,26.6,115,26.5z"/>
		<path class="st0" d="M113.7,29.3C113.6,29.2,113.5,29.1,113.7,29.3C113.7,29.3,113.7,29.3,113.7,29.3z"/>
		<path class="st0" d="M50.7,42.3c-0.4,1.4-3.1,2.6-4.5,1.3C47.6,43.1,49.5,42.8,50.7,42.3z"/>
	</g>
</g>
</svg>
